<svg id="Capa_1" enable-background="new 0 0 511.389 511.389" height="512" viewBox="0 0 511.389 511.389" width="512" xmlns="http://www.w3.org/2000/svg"><g><g><path d="m486.435 403.923h-69.487v-49.202h69.487c2.658 0 4.412 2.765 3.28 5.17l-9.15 19.431 9.15 19.431c1.132 2.405-.622 5.17-3.28 5.17z" fill="#9cf8d2"/><path d="m486.435 313.114h-62.487v-49.202h62.487c2.658 0 4.412 2.765 3.28 5.17l-9.15 19.431 9.15 19.431c1.132 2.404-.622 5.17-3.28 5.17z" fill="#ee6161"/><path d="m486.435 222.304h-63.487v-49.202h63.487c2.658 0 4.412 2.765 3.28 5.17l-9.15 19.431 9.15 19.431c1.132 2.405-.622 5.17-3.28 5.17z" fill="#22b27f"/><path d="m486.435 131.494h-60.487v-49.201h60.487c2.658 0 4.412 2.765 3.28 5.17l-9.15 19.431 9.15 19.431c1.132 2.404-.622 5.169-3.28 5.169z" fill="#fee45a"/><path d="m418.837 7.499h-251.54c-13.31 0-24.11 10.8-24.11 24.11v394.201l20.033 11.333 238.716 2.107 41.01-40.857v-.005-366.78c.001-13.31-10.789-24.109-24.109-24.109z" fill="#f47c7c"/><path d="m234.936 7.499h-67.639c-13.31 0-24.11 10.8-24.11 24.11v398.88h67.639v-398.881c0-13.31 10.8-24.109 24.11-24.109z" fill="#ee6161"/><path d="m432.943 462.588c5.525 0 10.004-4.479 10.004-10.004v-54.19h-267.663c-17.518 0-31.758 14.033-32.091 31.471-.344 17.994 14.728 32.723 32.725 32.723z" fill="#fdd79b"/><path d="m185.91 429.865c.286-14.981 10.841-28.256 24.916-31.471h-35.542c-17.518 0-31.758 14.033-32.091 31.471-.344 17.994 14.728 32.723 32.725 32.723h42.717c-17.998 0-33.069-14.729-32.725-32.723z" fill="#fccd7f"/><path d="m277.787 501.033-21.087-10.516-21.087 10.516c-2.632 1.313-5.726-.602-5.726-3.543v-65.74h53.625v65.74c.001 2.941-3.093 4.856-5.725 3.543z" fill="#fee45a"/><g><path d="m295.975 439.25h-79.305c-4.142 0-7.5-3.358-7.5-7.5s3.358-7.5 7.5-7.5h79.305c4.143 0 7.5 3.358 7.5 7.5s-3.357 7.5-7.5 7.5z" fill="#fccd7f"/></g><path d="m179.626 279.15-17.894-15.238h-98.445c-23.177 0-41.966-18.789-41.966-41.966v-48.486c0-23.177 18.789-41.966 41.966-41.966h77.617c23.177 0 41.966 18.789 41.966 41.966v104.191c0 1.679-1.966 2.587-3.244 1.499z" fill="#d4f2f6"/><g id="XMLID_1005_"><g><path d="m117.001 166.712-34.414 12.457-12.933 9.324v19.689l12.933 8.057 34.414 12.457c1.885.682 3.876-.714 3.876-2.719v-56.546c0-2.005-1.991-3.402-3.876-2.719z" fill="#f9f7f8"/><path d="m82.587 179.168v37.07h-19.03c-5.63 0-10.19-4.56-10.19-10.19v-16.69c0-5.63 4.56-10.19 10.19-10.19z" fill="#d7d0d6"/></g></g><path d="m393.588 365.443h-197.907c-4.611 0-8.349-3.738-8.349-8.349v-28.184c0-4.611 3.738-8.349 8.349-8.349h197.906c4.611 0 8.349 3.738 8.349 8.349v28.184c0 4.611-3.737 8.349-8.348 8.349z" fill="#ee6161"/><path d="m210.826 320.562h-15.145c-4.611 0-8.349 3.738-8.349 8.349v28.184c0 4.611 3.738 8.349 8.349 8.349h15.145z" fill="#e53950"/><circle cx="293.067" cy="150.898" fill="#f9f7f8" r="75.971"/><path d="m276.748 172.744v-43.692c0-4.741 5.279-7.572 9.229-4.95l32.905 21.846c3.54 2.351 3.54 7.55 0 9.901l-32.905 21.846c-3.95 2.622-9.229-.21-9.229-4.951z" fill="#f47c7c"/></g><g><path d="m295.975 424.25h-79.305c-4.142 0-7.5 3.358-7.5 7.5s3.358 7.5 7.5 7.5h5.717v64.638c0 2.598 1.344 5.011 3.554 6.378 1.205.746 2.574 1.122 3.947 1.122 1.144 0 2.29-.261 3.347-.788l23.466-11.703 23.466 11.702c2.323 1.16 5.082 1.034 7.293-.333 2.209-1.367 3.554-3.78 3.554-6.378v-64.638h4.962c4.143 0 7.5-3.358 7.5-7.5s-3.358-7.5-7.501-7.5zm-19.962 67.518-15.966-7.962c-2.107-1.051-4.586-1.051-6.694 0l-15.966 7.962v-52.518h38.625v52.518z"/><path d="m175.643 285.609c1.644 1.4 3.714 2.128 5.803 2.128 1.269 0 2.545-.269 3.736-.819 3.151-1.456 5.188-4.64 5.188-8.111v-105.347c0-27.275-22.19-49.466-49.466-49.466h-31.34c-4.142 0-7.5 3.358-7.5 7.5s3.358 7.5 7.5 7.5h31.34c19.005 0 34.466 15.461 34.466 34.466v92.214l-8.775-7.473c-1.357-1.155-3.081-1.79-4.863-1.79h-98.445c-19.004 0-34.466-15.461-34.466-34.466v-48.485c0-19.004 15.461-34.466 34.466-34.466h14.314c4.142 0 7.5-3.358 7.5-7.5s-3.358-7.5-7.5-7.5h-14.314c-27.275 0-49.466 22.19-49.466 49.466v48.485c0 27.275 22.19 49.466 49.466 49.466h95.685z"/><path d="m63.56 171.665c-9.756 0-17.693 7.937-17.693 17.693v16.691c0 9.756 7.937 17.693 17.693 17.693h17.708l37.056 13.407c.83.3 1.692.447 2.551.447 1.521 0 3.029-.463 4.308-1.36 2.001-1.404 3.192-3.695 3.192-6.14v-64.786c0-2.444-1.191-4.735-3.192-6.14-2.001-1.404-4.561-1.744-6.859-.913l-37.056 13.407h-17.708zm11.524 37.077h-11.524c-1.485 0-2.693-1.208-2.693-2.693v-16.691c0-1.485 1.208-2.693 2.693-2.693h11.524zm38.292 10.665-23.292-8.427v-26.552l23.292-8.428z"/><path d="m143.625 212.451c-3.726 1.81-5.279 6.297-3.469 10.023 1.297 2.67 3.97 4.225 6.751 4.225 1.1 0 2.216-.243 3.272-.756 10.913-5.301 17.691-16.122 17.691-28.24 0-12.117-6.779-22.938-17.691-28.24-3.726-1.808-8.213-.257-10.023 3.469s-.257 8.213 3.469 10.023c5.703 2.771 9.246 8.422 9.246 14.748s-3.543 11.977-9.246 14.748z"/><path d="m179.832 328.911v28.184c0 8.739 7.11 15.849 15.849 15.849h141.762c4.143 0 7.5-3.358 7.5-7.5s-3.357-7.5-7.5-7.5h-141.761c-.468 0-.849-.381-.849-.849v-28.184c0-.468.381-.849.849-.849h197.906c.468 0 .849.381.849.849v28.184c0 .468-.381.849-.849.849h-24.181c-4.143 0-7.5 3.358-7.5 7.5s3.357 7.5 7.5 7.5h24.181c8.739 0 15.849-7.11 15.849-15.849v-28.184c0-8.739-7.109-15.849-15.849-15.849h-197.906c-8.74 0-15.85 7.11-15.85 15.849z"/><path d="m337.005 88.488c2.044-3.603.779-8.18-2.823-10.224-12.499-7.089-26.717-10.836-41.114-10.836-46.026 0-83.471 37.445-83.471 83.471s37.445 83.471 83.471 83.471 83.471-37.445 83.471-83.471c0-17.843-5.564-34.874-16.092-49.253-2.447-3.341-7.139-4.067-10.482-1.621-3.342 2.447-4.067 7.14-1.621 10.482 8.633 11.79 13.195 25.757 13.195 40.392 0 37.755-30.716 68.471-68.471 68.471s-68.471-30.716-68.471-68.471 30.716-68.471 68.471-68.471c11.809 0 23.467 3.072 33.714 8.884 3.602 2.042 8.179.779 10.223-2.824z"/><path d="m323.03 139.699-32.905-21.846c-4.133-2.744-9.416-2.991-13.789-.647-4.372 2.345-7.088 6.884-7.088 11.845v43.692c0 4.961 2.716 9.5 7.088 11.845 1.994 1.07 4.178 1.6 6.355 1.6 2.597 0 5.186-.754 7.434-2.247l32.905-21.847c3.762-2.497 6.007-6.684 6.007-11.198s-2.246-8.699-6.007-11.197zm-38.783 30.14v-37.883l28.53 18.941z"/><path d="m495.828 170.767c-2.052-3.234-5.563-5.165-9.394-5.165h-35.987v-26.607h35.987c3.83 0 7.342-1.931 9.394-5.165 2.053-3.234 2.304-7.234.672-10.7l-7.646-16.236 7.646-16.237c1.631-3.465 1.38-7.465-.672-10.699-2.053-3.234-5.564-5.165-9.395-5.165h-35.987v-43.181c.002-17.431-14.18-31.612-31.611-31.612h-251.535c-17.431 0-31.613 14.181-31.613 31.612v69.94c0 4.142 3.358 7.5 7.5 7.5s7.5-3.358 7.5-7.5v-69.94c0-9.16 7.453-16.612 16.613-16.612h251.536c9.16 0 16.612 7.452 16.612 16.612v359.281h-260.163c-9.251 0-17.815 3.254-24.598 8.669v-105.65c0-4.142-3.358-7.5-7.5-7.5s-7.5 3.358-7.5 7.5v136.579c0 .093.01.183.014.275.075 10.15 4.062 19.757 11.316 27.151 7.588 7.735 18.123 12.171 28.902 12.171h23.97c4.142 0 7.5-3.358 7.5-7.5s-3.358-7.5-7.5-7.5h-23.97c-6.777 0-13.409-2.798-18.194-7.675-4.659-4.749-7.156-10.93-7.032-17.404.254-13.297 11.287-24.115 24.593-24.115h260.163v46.69c0 1.381-1.123 2.504-2.504 2.504h-119.433c-4.143 0-7.5 3.358-7.5 7.5s3.357 7.5 7.5 7.5h119.432c9.651 0 17.504-7.853 17.504-17.504v-41.161h35.987c3.83 0 7.342-1.931 9.395-5.165 2.052-3.234 2.303-7.234.671-10.7l-7.646-16.236 7.646-16.237c1.631-3.465 1.38-7.465-.673-10.699-2.052-3.234-5.563-5.165-9.394-5.165h-35.987v-26.608h35.987c3.83 0 7.342-1.931 9.395-5.165 2.052-3.234 2.303-7.234.671-10.7l-7.646-16.236 7.646-16.237c1.631-3.465 1.38-7.465-.673-10.699-2.052-3.234-5.563-5.165-9.394-5.165h-35.987v-26.607h35.987c3.83 0 7.342-1.931 9.394-5.165 2.053-3.234 2.304-7.234.672-10.7l-7.646-16.236 7.646-16.237c1.633-3.465 1.382-7.465-.671-10.699zm-15.5-80.974-6.548 13.905c-.953 2.023-.953 4.367 0 6.391l6.548 13.906h-29.88v-34.202zm0 272.428-6.548 13.906c-.953 2.023-.953 4.367 0 6.391l6.548 13.905h-29.88v-34.202zm0-90.809-6.548 13.906c-.953 2.023-.953 4.367 0 6.391l6.548 13.905h-29.88v-34.202zm-6.548-70.514 6.548 13.906h-29.88v-34.202h29.88l-6.548 13.906c-.953 2.023-.953 4.367 0 6.39z"/></g></g></svg>